<svg xmlns="http://www.w3.org/2000/svg" viewBox="0 0 100 100">
  <defs>
    <linearGradient id="grad" x1="0%" y1="0%" x2="100%" y2="100%">
      <stop offset="0%" style="stop-color:#6366f1"/>
      <stop offset="50%" style="stop-color:#8b5cf6"/>
      <stop offset="100%" style="stop-color:#a855f7"/>
    </linearGradient>
  </defs>
  <path fill="url(#grad)" d="M20 10 
    L40 10 
    C40 10 45 10 45 15 
    C45 20 50 25 55 25 
    C60 25 65 20 65 15 
    C65 10 70 10 70 10 
    L90 10 
    L90 35 
    C90 35 90 40 85 40 
    C80 40 75 45 75 50 
    C75 55 80 60 85 60 
    C90 60 90 65 90 65 
    L90 90 
    L65 90 
    C65 90 60 90 60 85 
    C60 80 55 75 50 75 
    C45 75 40 80 40 85 
    C40 90 35 90 35 90 
    L10 90 
    L10 65 
    C10 65 10 60 15 60 
    C20 60 25 55 25 50 
    C25 45 20 40 15 40 
    C10 40 10 35 10 35 
    L10 10 
    Z"/>
</svg>
